@startuml
set separator none
package oy.tol.tra {
  package test.resources {
    entity DailyTasks.txt <<file>>
  }
  interface QueueInterface<E> {
    +int capacity()
    +void enqueue(E element)
    +E dequeue()
    +E element()
    +int size()
    +boolean isEmpty()
    +void clear()
    +String toString()
  }
  class QueueFactory {
    +{static}QueueInterface<Integer> createIntegerQueue(int capacity)
  }
  class QueueImplementation implements QueueInterface
  class DailyTasks {
    +{static} void main(String[] args)
    -<color:Red>run(): void</color>
    -<color:Red>readTasks(): void</color>
  }
  class QueueImplementation
  note left of QueueImplementation 
    This was implemented in 03-queue.
  end note 

  QueueFactory ..> QueueImplementation : instantiates
  DailyTasks ..> QueueImplementation : uses
  
  DailyTasks ..> test.resources : reads
  

  QueueImplementation ..> QueueIsEmptyException : throws
  QueueImplementation ..> QueueAllocationException : throws

  QueueTests ..> QueueImplementation : tests
}
package java.util {
  DailyTasks ..> Timer : uses
  Timer ..> TimerTask
}
package java.lang {
  class Exception 
  QueueIsEmptyException --|> Exception
  QueueAllocationException --|> Exception
}
@enduml
